{
	"asset":{
		"generator":"Khronos glTF Blender I/O v3.6.27",
		"version":"2.0"
	},
	"extensionsUsed":[
		"KHR_materials_specular",
		"KHR_materials_ior"
	],
	"scene":0,
	"scenes":[
		{
			"name":"Scene",
			"nodes":[
				0
			]
		}
	],
	"nodes":[
		{
			"mesh":0,
			"name":"natura_world.209"
		}
	],
	"materials":[
		{
			"doubleSided":true,
			"extensions":{
				"KHR_materials_specular":{
					"specularColorFactor":[
						0,
						0,
						0
					]
				},
				"KHR_materials_ior":{
					"ior":1.4500000476837158
				}
			},
			"name":"ground_material",
			"pbrMetallicRoughness":{
				"baseColorFactor":[
					0.1247713565826416,
					0.571124792098999,
					0.07421372830867767,
					1
				],
				"metallicFactor":0
			}
		},
		{
			"doubleSided":true,
			"extensions":{
				"KHR_materials_specular":{
					"specularColorFactor":[
						0,
						0,
						0
					]
				},
				"KHR_materials_ior":{
					"ior":1.4500000476837158
				}
			},
			"name":"beach_material",
			"pbrMetallicRoughness":{
				"baseColorFactor":[
					0.9911014437675476,
					0.7991024255752563,
					0.11953867226839066,
					1
				],
				"metallicFactor":0
			}
		}
	],
	"meshes":[
		{
			"name":"Plane.209",
			"primitives":[
				{
					"attributes":{
						"POSITION":0,
						"NORMAL":1,
						"TEXCOORD_0":2
					},
					"indices":3,
					"material":0
				},
				{
					"attributes":{
						"POSITION":4,
						"NORMAL":5,
						"TEXCOORD_0":6
					},
					"indices":7,
					"material":1
				}
			]
		}
	],
	"accessors":[
		{
			"bufferView":0,
			"componentType":5126,
			"count":875,
			"max":[
				-0.25,
				-0.02009803056716919,
				-0.375
			],
			"min":[
				-0.375,
				-0.02794116735458374,
				-0.5
			],
			"type":"VEC3"
		},
		{
			"bufferView":1,
			"componentType":5126,
			"count":875,
			"type":"VEC3"
		},
		{
			"bufferView":2,
			"componentType":5126,
			"count":875,
			"type":"VEC2"
		},
		{
			"bufferView":3,
			"componentType":5123,
			"count":1434,
			"type":"SCALAR"
		},
		{
			"bufferView":4,
			"componentType":5126,
			"count":164,
			"max":[
				-0.3359375,
				-0.026470571756362915,
				-0.3828125
			],
			"min":[
				-0.375,
				-0.02892155945301056,
				-0.5
			],
			"type":"VEC3"
		},
		{
			"bufferView":5,
			"componentType":5126,
			"count":164,
			"type":"VEC3"
		},
		{
			"bufferView":6,
			"componentType":5126,
			"count":164,
			"type":"VEC2"
		},
		{
			"bufferView":7,
			"componentType":5123,
			"count":300,
			"type":"SCALAR"
		}
	],
	"bufferViews":[
		{
			"buffer":0,
			"byteLength":10500,
			"byteOffset":0,
			"target":34962
		},
		{
			"buffer":0,
			"byteLength":10500,
			"byteOffset":10500,
			"target":34962
		},
		{
			"buffer":0,
			"byteLength":7000,
			"byteOffset":21000,
			"target":34962
		},
		{
			"buffer":0,
			"byteLength":2868,
			"byteOffset":28000,
			"target":34963
		},
		{
			"buffer":0,
			"byteLength":1968,
			"byteOffset":30868,
			"target":34962
		},
		{
			"buffer":0,
			"byteLength":1968,
			"byteOffset":32836,
			"target":34962
		},
		{
			"buffer":0,
			"byteLength":1312,
			"byteOffset":34804,
			"target":34962
		},
		{
			"buffer":0,
			"byteLength":600,
			"byteOffset":36116,
			"target":34963
		}
	],
	"buffers":[
		{
			"byteLength":36716,
			"uri":"natura_world_209.bin"
		}
	]
}
