{
	"asset":{
		"generator":"Khronos glTF Blender I/O v3.6.27",
		"version":"2.0"
	},
	"extensionsUsed":[
		"KHR_materials_specular",
		"KHR_materials_ior"
	],
	"scene":0,
	"scenes":[
		{
			"name":"Scene",
			"nodes":[
				0
			]
		}
	],
	"nodes":[
		{
			"mesh":0,
			"name":"natura_world.175"
		}
	],
	"materials":[
		{
			"doubleSided":true,
			"extensions":{
				"KHR_materials_specular":{
					"specularColorFactor":[
						0,
						0,
						0
					]
				},
				"KHR_materials_ior":{
					"ior":1.4500000476837158
				}
			},
			"name":"ground_material",
			"pbrMetallicRoughness":{
				"baseColorFactor":[
					0.1247713565826416,
					0.571124792098999,
					0.07421372830867767,
					1
				],
				"metallicFactor":0
			}
		},
		{
			"doubleSided":true,
			"extensions":{
				"KHR_materials_specular":{
					"specularColorFactor":[
						0,
						0,
						0
					]
				},
				"KHR_materials_ior":{
					"ior":1.4500000476837158
				}
			},
			"name":"beach_material",
			"pbrMetallicRoughness":{
				"baseColorFactor":[
					0.9911014437675476,
					0.7991024255752563,
					0.11953867226839066,
					1
				],
				"metallicFactor":0
			}
		}
	],
	"meshes":[
		{
			"name":"Plane.175",
			"primitives":[
				{
					"attributes":{
						"POSITION":0,
						"NORMAL":1,
						"TEXCOORD_0":2
					},
					"indices":3,
					"material":0
				},
				{
					"attributes":{
						"POSITION":4,
						"NORMAL":5,
						"TEXCOORD_0":6
					},
					"indices":7,
					"material":1
				}
			]
		}
	],
	"accessors":[
		{
			"bufferView":0,
			"componentType":5126,
			"count":136,
			"max":[
				0.4375,
				0,
				-0.125
			],
			"min":[
				0.375,
				0,
				-0.25
			],
			"type":"VEC3"
		},
		{
			"bufferView":1,
			"componentType":5126,
			"count":136,
			"type":"VEC3"
		},
		{
			"bufferView":2,
			"componentType":5126,
			"count":136,
			"type":"VEC2"
		},
		{
			"bufferView":3,
			"componentType":5123,
			"count":660,
			"type":"SCALAR"
		},
		{
			"bufferView":4,
			"componentType":5126,
			"count":208,
			"max":[
				0.5,
				0,
				-0.125
			],
			"min":[
				0.421875,
				0,
				-0.25
			],
			"type":"VEC3"
		},
		{
			"bufferView":5,
			"componentType":5126,
			"count":208,
			"type":"VEC3"
		},
		{
			"bufferView":6,
			"componentType":5126,
			"count":208,
			"type":"VEC2"
		},
		{
			"bufferView":7,
			"componentType":5123,
			"count":1074,
			"type":"SCALAR"
		}
	],
	"bufferViews":[
		{
			"buffer":0,
			"byteLength":1632,
			"byteOffset":0,
			"target":34962
		},
		{
			"buffer":0,
			"byteLength":1632,
			"byteOffset":1632,
			"target":34962
		},
		{
			"buffer":0,
			"byteLength":1088,
			"byteOffset":3264,
			"target":34962
		},
		{
			"buffer":0,
			"byteLength":1320,
			"byteOffset":4352,
			"target":34963
		},
		{
			"buffer":0,
			"byteLength":2496,
			"byteOffset":5672,
			"target":34962
		},
		{
			"buffer":0,
			"byteLength":2496,
			"byteOffset":8168,
			"target":34962
		},
		{
			"buffer":0,
			"byteLength":1664,
			"byteOffset":10664,
			"target":34962
		},
		{
			"buffer":0,
			"byteLength":2148,
			"byteOffset":12328,
			"target":34963
		}
	],
	"buffers":[
		{
			"byteLength":14476,
			"uri":"natura_world_175.bin"
		}
	]
}
