{
	"asset":{
		"generator":"Khronos glTF Blender I/O v3.6.27",
		"version":"2.0"
	},
	"extensionsUsed":[
		"KHR_materials_specular",
		"KHR_materials_ior"
	],
	"scene":0,
	"scenes":[
		{
			"name":"Scene",
			"nodes":[
				0
			]
		}
	],
	"nodes":[
		{
			"mesh":0,
			"name":"natura_world.179"
		}
	],
	"materials":[
		{
			"doubleSided":true,
			"extensions":{
				"KHR_materials_specular":{
					"specularColorFactor":[
						0,
						0,
						0
					]
				},
				"KHR_materials_ior":{
					"ior":1.4500000476837158
				}
			},
			"name":"ground_material",
			"pbrMetallicRoughness":{
				"baseColorFactor":[
					0.1247713565826416,
					0.571124792098999,
					0.07421372830867767,
					1
				],
				"metallicFactor":0
			}
		}
	],
	"meshes":[
		{
			"name":"Plane.179",
			"primitives":[
				{
					"attributes":{
						"POSITION":0,
						"NORMAL":1,
						"TEXCOORD_0":2
					},
					"indices":3,
					"material":0
				}
			]
		}
	],
	"accessors":[
		{
			"bufferView":0,
			"componentType":5126,
			"count":854,
			"max":[
				0,
				0.007352948188781738,
				-0.125
			],
			"min":[
				-0.125,
				0.0017156898975372314,
				-0.25
			],
			"type":"VEC3"
		},
		{
			"bufferView":1,
			"componentType":5126,
			"count":854,
			"type":"VEC3"
		},
		{
			"bufferView":2,
			"componentType":5126,
			"count":854,
			"type":"VEC2"
		},
		{
			"bufferView":3,
			"componentType":5123,
			"count":1734,
			"type":"SCALAR"
		}
	],
	"bufferViews":[
		{
			"buffer":0,
			"byteLength":10248,
			"byteOffset":0,
			"target":34962
		},
		{
			"buffer":0,
			"byteLength":10248,
			"byteOffset":10248,
			"target":34962
		},
		{
			"buffer":0,
			"byteLength":6832,
			"byteOffset":20496,
			"target":34962
		},
		{
			"buffer":0,
			"byteLength":3468,
			"byteOffset":27328,
			"target":34963
		}
	],
	"buffers":[
		{
			"byteLength":30796,
			"uri":"natura_world_179.bin"
		}
	]
}
