{
	"asset":{
		"generator":"Khronos glTF Blender I/O v3.6.27",
		"version":"2.0"
	},
	"extensionsUsed":[
		"KHR_materials_specular",
		"KHR_materials_ior"
	],
	"scene":0,
	"scenes":[
		{
			"name":"Scene",
			"nodes":[
				0
			]
		}
	],
	"nodes":[
		{
			"mesh":0,
			"name":"natura_world.155"
		}
	],
	"materials":[
		{
			"doubleSided":true,
			"extensions":{
				"KHR_materials_specular":{
					"specularColorFactor":[
						0,
						0,
						0
					]
				},
				"KHR_materials_ior":{
					"ior":1.4500000476837158
				}
			},
			"name":"ground_material",
			"pbrMetallicRoughness":{
				"baseColorFactor":[
					0.1247713565826416,
					0.571124792098999,
					0.07421372830867767,
					1
				],
				"metallicFactor":0
			}
		},
		{
			"doubleSided":true,
			"extensions":{
				"KHR_materials_specular":{
					"specularColorFactor":[
						0,
						0,
						0
					]
				},
				"KHR_materials_ior":{
					"ior":1.4500000476837158
				}
			},
			"name":"beach_material",
			"pbrMetallicRoughness":{
				"baseColorFactor":[
					0.9911014437675476,
					0.7991024255752563,
					0.11953867226839066,
					1
				],
				"metallicFactor":0
			}
		}
	],
	"meshes":[
		{
			"name":"Plane.155",
			"primitives":[
				{
					"attributes":{
						"POSITION":0,
						"NORMAL":1,
						"TEXCOORD_0":2
					},
					"indices":3,
					"material":0
				},
				{
					"attributes":{
						"POSITION":4,
						"NORMAL":5,
						"TEXCOORD_0":6
					},
					"indices":7,
					"material":1
				}
			]
		}
	],
	"accessors":[
		{
			"bufferView":0,
			"componentType":5126,
			"count":28,
			"max":[
				-0.5,
				-0.02794116735458374,
				0.046875
			],
			"min":[
				-0.5078125,
				-0.028431355953216553,
				0
			],
			"type":"VEC3"
		},
		{
			"bufferView":1,
			"componentType":5126,
			"count":28,
			"type":"VEC3"
		},
		{
			"bufferView":2,
			"componentType":5126,
			"count":28,
			"type":"VEC2"
		},
		{
			"bufferView":3,
			"componentType":5123,
			"count":66,
			"type":"SCALAR"
		},
		{
			"bufferView":4,
			"componentType":5126,
			"count":468,
			"max":[
				-0.5,
				-0.02794116735458374,
				0.125
			],
			"min":[
				-0.625,
				-0.0308823361992836,
				0
			],
			"type":"VEC3"
		},
		{
			"bufferView":5,
			"componentType":5126,
			"count":468,
			"type":"VEC3"
		},
		{
			"bufferView":6,
			"componentType":5126,
			"count":468,
			"type":"VEC2"
		},
		{
			"bufferView":7,
			"componentType":5123,
			"count":1668,
			"type":"SCALAR"
		}
	],
	"bufferViews":[
		{
			"buffer":0,
			"byteLength":336,
			"byteOffset":0,
			"target":34962
		},
		{
			"buffer":0,
			"byteLength":336,
			"byteOffset":336,
			"target":34962
		},
		{
			"buffer":0,
			"byteLength":224,
			"byteOffset":672,
			"target":34962
		},
		{
			"buffer":0,
			"byteLength":132,
			"byteOffset":896,
			"target":34963
		},
		{
			"buffer":0,
			"byteLength":5616,
			"byteOffset":1028,
			"target":34962
		},
		{
			"buffer":0,
			"byteLength":5616,
			"byteOffset":6644,
			"target":34962
		},
		{
			"buffer":0,
			"byteLength":3744,
			"byteOffset":12260,
			"target":34962
		},
		{
			"buffer":0,
			"byteLength":3336,
			"byteOffset":16004,
			"target":34963
		}
	],
	"buffers":[
		{
			"byteLength":19340,
			"uri":"natura_world_155.bin"
		}
	]
}
