{
	"asset":{
		"generator":"Khronos glTF Blender I/O v3.6.27",
		"version":"2.0"
	},
	"extensionsUsed":[
		"KHR_materials_specular",
		"KHR_materials_ior"
	],
	"scene":0,
	"scenes":[
		{
			"name":"Scene",
			"nodes":[
				0
			]
		}
	],
	"nodes":[
		{
			"mesh":0,
			"name":"natura_world.126"
		}
	],
	"materials":[
		{
			"doubleSided":true,
			"extensions":{
				"KHR_materials_specular":{
					"specularColorFactor":[
						0,
						0,
						0
					]
				},
				"KHR_materials_ior":{
					"ior":1.4500000476837158
				}
			},
			"name":"ground_material",
			"pbrMetallicRoughness":{
				"baseColorFactor":[
					0.1247713565826416,
					0.571124792098999,
					0.07421372830867767,
					1
				],
				"metallicFactor":0
			}
		},
		{
			"doubleSided":true,
			"extensions":{
				"KHR_materials_specular":{
					"specularColorFactor":[
						0,
						0,
						0
					]
				},
				"KHR_materials_ior":{
					"ior":1.4500000476837158
				}
			},
			"name":"beach_material",
			"pbrMetallicRoughness":{
				"baseColorFactor":[
					0.9911014437675476,
					0.7991024255752563,
					0.11953867226839066,
					1
				],
				"metallicFactor":0
			}
		}
	],
	"meshes":[
		{
			"name":"Plane.126",
			"primitives":[
				{
					"attributes":{
						"POSITION":0,
						"NORMAL":1,
						"TEXCOORD_0":2
					},
					"indices":3,
					"material":0
				},
				{
					"attributes":{
						"POSITION":4,
						"NORMAL":5,
						"TEXCOORD_0":6
					},
					"indices":7,
					"material":1
				}
			]
		}
	],
	"accessors":[
		{
			"bufferView":0,
			"componentType":5126,
			"count":1122,
			"max":[
				-0.375,
				-0.019117631018161774,
				0.375
			],
			"min":[
				-0.5,
				-0.02720586210489273,
				0.25
			],
			"type":"VEC3"
		},
		{
			"bufferView":1,
			"componentType":5126,
			"count":1122,
			"type":"VEC3"
		},
		{
			"bufferView":2,
			"componentType":5126,
			"count":1122,
			"type":"VEC2"
		},
		{
			"bufferView":3,
			"componentType":5123,
			"count":1674,
			"type":"SCALAR"
		},
		{
			"bufferView":4,
			"componentType":5126,
			"count":44,
			"max":[
				-0.46875,
				-0.026960767805576324,
				0.2734375
			],
			"min":[
				-0.5,
				-0.028186261653900146,
				0.25
			],
			"type":"VEC3"
		},
		{
			"bufferView":5,
			"componentType":5126,
			"count":44,
			"type":"VEC3"
		},
		{
			"bufferView":6,
			"componentType":5126,
			"count":44,
			"type":"VEC2"
		},
		{
			"bufferView":7,
			"componentType":5123,
			"count":60,
			"type":"SCALAR"
		}
	],
	"bufferViews":[
		{
			"buffer":0,
			"byteLength":13464,
			"byteOffset":0,
			"target":34962
		},
		{
			"buffer":0,
			"byteLength":13464,
			"byteOffset":13464,
			"target":34962
		},
		{
			"buffer":0,
			"byteLength":8976,
			"byteOffset":26928,
			"target":34962
		},
		{
			"buffer":0,
			"byteLength":3348,
			"byteOffset":35904,
			"target":34963
		},
		{
			"buffer":0,
			"byteLength":528,
			"byteOffset":39252,
			"target":34962
		},
		{
			"buffer":0,
			"byteLength":528,
			"byteOffset":39780,
			"target":34962
		},
		{
			"buffer":0,
			"byteLength":352,
			"byteOffset":40308,
			"target":34962
		},
		{
			"buffer":0,
			"byteLength":120,
			"byteOffset":40660,
			"target":34963
		}
	],
	"buffers":[
		{
			"byteLength":40780,
			"uri":"natura_world_126.bin"
		}
	]
}
