{
	"asset":{
		"generator":"Khronos glTF Blender I/O v3.6.27",
		"version":"2.0"
	},
	"extensionsUsed":[
		"KHR_materials_specular",
		"KHR_materials_ior"
	],
	"scene":0,
	"scenes":[
		{
			"name":"Scene",
			"nodes":[
				0
			]
		}
	],
	"nodes":[
		{
			"mesh":0,
			"name":"natura_world.106"
		}
	],
	"materials":[
		{
			"doubleSided":true,
			"extensions":{
				"KHR_materials_specular":{
					"specularColorFactor":[
						0,
						0,
						0
					]
				},
				"KHR_materials_ior":{
					"ior":1.4500000476837158
				}
			},
			"name":"ground_material",
			"pbrMetallicRoughness":{
				"baseColorFactor":[
					0.1247713565826416,
					0.571124792098999,
					0.07421372830867767,
					1
				],
				"metallicFactor":0
			}
		},
		{
			"doubleSided":true,
			"extensions":{
				"KHR_materials_specular":{
					"specularColorFactor":[
						0,
						0,
						0
					]
				},
				"KHR_materials_ior":{
					"ior":1.4500000476837158
				}
			},
			"name":"beach_material",
			"pbrMetallicRoughness":{
				"baseColorFactor":[
					0.9911014437675476,
					0.7991024255752563,
					0.11953867226839066,
					1
				],
				"metallicFactor":0
			}
		}
	],
	"meshes":[
		{
			"name":"Plane.106",
			"primitives":[
				{
					"attributes":{
						"POSITION":0,
						"NORMAL":1,
						"TEXCOORD_0":2
					},
					"indices":3,
					"material":0
				},
				{
					"attributes":{
						"POSITION":4,
						"NORMAL":5,
						"TEXCOORD_0":6
					},
					"indices":7,
					"material":1
				}
			]
		}
	],
	"accessors":[
		{
			"bufferView":0,
			"componentType":5126,
			"count":1143,
			"max":[
				0.375,
				-0.017892152070999146,
				0.5
			],
			"min":[
				0.25,
				-0.02794116735458374,
				0.375
			],
			"type":"VEC3"
		},
		{
			"bufferView":1,
			"componentType":5126,
			"count":1143,
			"type":"VEC3"
		},
		{
			"bufferView":2,
			"componentType":5126,
			"count":1143,
			"type":"VEC2"
		},
		{
			"bufferView":3,
			"componentType":5123,
			"count":1512,
			"type":"SCALAR"
		},
		{
			"bufferView":4,
			"componentType":5126,
			"count":173,
			"max":[
				0.375,
				-0.02720586210489273,
				0.5
			],
			"min":[
				0.3203125,
				-0.0308823361992836,
				0.4296875
			],
			"type":"VEC3"
		},
		{
			"bufferView":5,
			"componentType":5126,
			"count":173,
			"type":"VEC3"
		},
		{
			"bufferView":6,
			"componentType":5126,
			"count":173,
			"type":"VEC2"
		},
		{
			"bufferView":7,
			"componentType":5123,
			"count":222,
			"type":"SCALAR"
		}
	],
	"bufferViews":[
		{
			"buffer":0,
			"byteLength":13716,
			"byteOffset":0,
			"target":34962
		},
		{
			"buffer":0,
			"byteLength":13716,
			"byteOffset":13716,
			"target":34962
		},
		{
			"buffer":0,
			"byteLength":9144,
			"byteOffset":27432,
			"target":34962
		},
		{
			"buffer":0,
			"byteLength":3024,
			"byteOffset":36576,
			"target":34963
		},
		{
			"buffer":0,
			"byteLength":2076,
			"byteOffset":39600,
			"target":34962
		},
		{
			"buffer":0,
			"byteLength":2076,
			"byteOffset":41676,
			"target":34962
		},
		{
			"buffer":0,
			"byteLength":1384,
			"byteOffset":43752,
			"target":34962
		},
		{
			"buffer":0,
			"byteLength":444,
			"byteOffset":45136,
			"target":34963
		}
	],
	"buffers":[
		{
			"byteLength":45580,
			"uri":"natura_world_106.bin"
		}
	]
}
