{
	"asset":{
		"generator":"Khronos glTF Blender I/O v3.6.27",
		"version":"2.0"
	},
	"extensionsUsed":[
		"KHR_materials_specular",
		"KHR_materials_ior"
	],
	"scene":0,
	"scenes":[
		{
			"name":"Scene",
			"nodes":[
				0
			]
		}
	],
	"nodes":[
		{
			"mesh":0,
			"name":"natura_world.220"
		}
	],
	"materials":[
		{
			"doubleSided":true,
			"extensions":{
				"KHR_materials_specular":{
					"specularColorFactor":[
						0,
						0,
						0
					]
				},
				"KHR_materials_ior":{
					"ior":1.4500000476837158
				}
			},
			"name":"ground_material",
			"pbrMetallicRoughness":{
				"baseColorFactor":[
					0.1247713565826416,
					0.571124792098999,
					0.07421372830867767,
					1
				],
				"metallicFactor":0
			}
		},
		{
			"doubleSided":true,
			"extensions":{
				"KHR_materials_specular":{
					"specularColorFactor":[
						0,
						0,
						0
					]
				},
				"KHR_materials_ior":{
					"ior":1.4500000476837158
				}
			},
			"name":"beach_material",
			"pbrMetallicRoughness":{
				"baseColorFactor":[
					0.9911014437675476,
					0.7991024255752563,
					0.11953867226839066,
					1
				],
				"metallicFactor":0
			}
		}
	],
	"meshes":[
		{
			"name":"Plane.220",
			"primitives":[
				{
					"attributes":{
						"POSITION":0,
						"NORMAL":1,
						"TEXCOORD_0":2
					},
					"indices":3,
					"material":0
				},
				{
					"attributes":{
						"POSITION":4,
						"NORMAL":5,
						"TEXCOORD_0":6
					},
					"indices":7,
					"material":1
				}
			]
		}
	],
	"accessors":[
		{
			"bufferView":0,
			"componentType":5126,
			"count":760,
			"max":[
				0.125,
				-0.014460772275924683,
				-0.5
			],
			"min":[
				0,
				-0.02892155945301056,
				-0.609375
			],
			"type":"VEC3"
		},
		{
			"bufferView":1,
			"componentType":5126,
			"count":760,
			"type":"VEC3"
		},
		{
			"bufferView":2,
			"componentType":5126,
			"count":760,
			"type":"VEC2"
		},
		{
			"bufferView":3,
			"componentType":5123,
			"count":1338,
			"type":"SCALAR"
		},
		{
			"bufferView":4,
			"componentType":5126,
			"count":231,
			"max":[
				0.125,
				-0.027450978755950928,
				-0.6015625
			],
			"min":[
				0,
				-0.0308823361992836,
				-0.625
			],
			"type":"VEC3"
		},
		{
			"bufferView":5,
			"componentType":5126,
			"count":231,
			"type":"VEC3"
		},
		{
			"bufferView":6,
			"componentType":5126,
			"count":231,
			"type":"VEC2"
		},
		{
			"bufferView":7,
			"componentType":5123,
			"count":396,
			"type":"SCALAR"
		}
	],
	"bufferViews":[
		{
			"buffer":0,
			"byteLength":9120,
			"byteOffset":0,
			"target":34962
		},
		{
			"buffer":0,
			"byteLength":9120,
			"byteOffset":9120,
			"target":34962
		},
		{
			"buffer":0,
			"byteLength":6080,
			"byteOffset":18240,
			"target":34962
		},
		{
			"buffer":0,
			"byteLength":2676,
			"byteOffset":24320,
			"target":34963
		},
		{
			"buffer":0,
			"byteLength":2772,
			"byteOffset":26996,
			"target":34962
		},
		{
			"buffer":0,
			"byteLength":2772,
			"byteOffset":29768,
			"target":34962
		},
		{
			"buffer":0,
			"byteLength":1848,
			"byteOffset":32540,
			"target":34962
		},
		{
			"buffer":0,
			"byteLength":792,
			"byteOffset":34388,
			"target":34963
		}
	],
	"buffers":[
		{
			"byteLength":35180,
			"uri":"natura_world_220.bin"
		}
	]
}
