{
	"asset":{
		"generator":"Khronos glTF Blender I/O v3.6.27",
		"version":"2.0"
	},
	"extensionsUsed":[
		"KHR_materials_specular",
		"KHR_materials_ior"
	],
	"scene":0,
	"scenes":[
		{
			"name":"Scene",
			"nodes":[
				0
			]
		}
	],
	"nodes":[
		{
			"mesh":0,
			"name":"natura_world.109"
		}
	],
	"materials":[
		{
			"doubleSided":true,
			"extensions":{
				"KHR_materials_specular":{
					"specularColorFactor":[
						0,
						0,
						0
					]
				},
				"KHR_materials_ior":{
					"ior":1.4500000476837158
				}
			},
			"name":"ground_material",
			"pbrMetallicRoughness":{
				"baseColorFactor":[
					0.1247713565826416,
					0.571124792098999,
					0.07421372830867767,
					1
				],
				"metallicFactor":0
			}
		},
		{
			"doubleSided":true,
			"extensions":{
				"KHR_materials_specular":{
					"specularColorFactor":[
						0,
						0,
						0
					]
				},
				"KHR_materials_ior":{
					"ior":1.4500000476837158
				}
			},
			"name":"beach_material",
			"pbrMetallicRoughness":{
				"baseColorFactor":[
					0.9911014437675476,
					0.7991024255752563,
					0.11953867226839066,
					1
				],
				"metallicFactor":0
			}
		}
	],
	"meshes":[
		{
			"name":"Plane.109",
			"primitives":[
				{
					"attributes":{
						"POSITION":0,
						"NORMAL":1,
						"TEXCOORD_0":2
					},
					"indices":3,
					"material":0
				},
				{
					"attributes":{
						"POSITION":4,
						"NORMAL":5,
						"TEXCOORD_0":6
					},
					"indices":7,
					"material":1
				}
			]
		}
	],
	"accessors":[
		{
			"bufferView":0,
			"componentType":5126,
			"count":896,
			"max":[
				0,
				-0.014215677976608276,
				0.5
			],
			"min":[
				-0.125,
				-0.02892155945301056,
				0.375
			],
			"type":"VEC3"
		},
		{
			"bufferView":1,
			"componentType":5126,
			"count":896,
			"type":"VEC3"
		},
		{
			"bufferView":2,
			"componentType":5126,
			"count":896,
			"type":"VEC2"
		},
		{
			"bufferView":3,
			"componentType":5123,
			"count":1644,
			"type":"SCALAR"
		},
		{
			"bufferView":4,
			"componentType":5126,
			"count":60,
			"max":[
				0,
				-0.028676465153694153,
				0.5
			],
			"min":[
				-0.0625,
				-0.0308823361992836,
				0.484375
			],
			"type":"VEC3"
		},
		{
			"bufferView":5,
			"componentType":5126,
			"count":60,
			"type":"VEC3"
		},
		{
			"bufferView":6,
			"componentType":5126,
			"count":60,
			"type":"VEC2"
		},
		{
			"bufferView":7,
			"componentType":5123,
			"count":90,
			"type":"SCALAR"
		}
	],
	"bufferViews":[
		{
			"buffer":0,
			"byteLength":10752,
			"byteOffset":0,
			"target":34962
		},
		{
			"buffer":0,
			"byteLength":10752,
			"byteOffset":10752,
			"target":34962
		},
		{
			"buffer":0,
			"byteLength":7168,
			"byteOffset":21504,
			"target":34962
		},
		{
			"buffer":0,
			"byteLength":3288,
			"byteOffset":28672,
			"target":34963
		},
		{
			"buffer":0,
			"byteLength":720,
			"byteOffset":31960,
			"target":34962
		},
		{
			"buffer":0,
			"byteLength":720,
			"byteOffset":32680,
			"target":34962
		},
		{
			"buffer":0,
			"byteLength":480,
			"byteOffset":33400,
			"target":34962
		},
		{
			"buffer":0,
			"byteLength":180,
			"byteOffset":33880,
			"target":34963
		}
	],
	"buffers":[
		{
			"byteLength":34060,
			"uri":"natura_world_109.bin"
		}
	]
}
