{
	"asset":{
		"generator":"Khronos glTF Blender I/O v3.6.27",
		"version":"2.0"
	},
	"extensionsUsed":[
		"KHR_materials_specular",
		"KHR_materials_ior"
	],
	"scene":0,
	"scenes":[
		{
			"name":"Scene",
			"nodes":[
				0
			]
		}
	],
	"nodes":[
		{
			"mesh":0,
			"name":"natura_world.154"
		}
	],
	"materials":[
		{
			"doubleSided":true,
			"extensions":{
				"KHR_materials_specular":{
					"specularColorFactor":[
						0,
						0,
						0
					]
				},
				"KHR_materials_ior":{
					"ior":1.4500000476837158
				}
			},
			"name":"ground_material",
			"pbrMetallicRoughness":{
				"baseColorFactor":[
					0.1247713565826416,
					0.571124792098999,
					0.07421372830867767,
					1
				],
				"metallicFactor":0
			}
		},
		{
			"doubleSided":true,
			"extensions":{
				"KHR_materials_specular":{
					"specularColorFactor":[
						0,
						0,
						0
					]
				},
				"KHR_materials_ior":{
					"ior":1.4500000476837158
				}
			},
			"name":"beach_material",
			"pbrMetallicRoughness":{
				"baseColorFactor":[
					0.9911014437675476,
					0.7991024255752563,
					0.11953867226839066,
					1
				],
				"metallicFactor":0
			}
		}
	],
	"meshes":[
		{
			"name":"Plane.154",
			"primitives":[
				{
					"attributes":{
						"POSITION":0,
						"NORMAL":1,
						"TEXCOORD_0":2
					},
					"indices":3,
					"material":0
				},
				{
					"attributes":{
						"POSITION":4,
						"NORMAL":5,
						"TEXCOORD_0":6
					},
					"indices":7,
					"material":1
				}
			]
		}
	],
	"accessors":[
		{
			"bufferView":0,
			"componentType":5126,
			"count":898,
			"max":[
				-0.375,
				-0.011764705181121826,
				0.125
			],
			"min":[
				-0.5,
				-0.02794116735458374,
				0
			],
			"type":"VEC3"
		},
		{
			"bufferView":1,
			"componentType":5126,
			"count":898,
			"type":"VEC3"
		},
		{
			"bufferView":2,
			"componentType":5126,
			"count":898,
			"type":"VEC2"
		},
		{
			"bufferView":3,
			"componentType":5123,
			"count":1632,
			"type":"SCALAR"
		},
		{
			"bufferView":4,
			"componentType":5126,
			"count":70,
			"max":[
				-0.4765625,
				-0.02671566605567932,
				0.125
			],
			"min":[
				-0.5,
				-0.02941174805164337,
				0.046875
			],
			"type":"VEC3"
		},
		{
			"bufferView":5,
			"componentType":5126,
			"count":70,
			"type":"VEC3"
		},
		{
			"bufferView":6,
			"componentType":5126,
			"count":70,
			"type":"VEC2"
		},
		{
			"bufferView":7,
			"componentType":5123,
			"count":102,
			"type":"SCALAR"
		}
	],
	"bufferViews":[
		{
			"buffer":0,
			"byteLength":10776,
			"byteOffset":0,
			"target":34962
		},
		{
			"buffer":0,
			"byteLength":10776,
			"byteOffset":10776,
			"target":34962
		},
		{
			"buffer":0,
			"byteLength":7184,
			"byteOffset":21552,
			"target":34962
		},
		{
			"buffer":0,
			"byteLength":3264,
			"byteOffset":28736,
			"target":34963
		},
		{
			"buffer":0,
			"byteLength":840,
			"byteOffset":32000,
			"target":34962
		},
		{
			"buffer":0,
			"byteLength":840,
			"byteOffset":32840,
			"target":34962
		},
		{
			"buffer":0,
			"byteLength":560,
			"byteOffset":33680,
			"target":34962
		},
		{
			"buffer":0,
			"byteLength":204,
			"byteOffset":34240,
			"target":34963
		}
	],
	"buffers":[
		{
			"byteLength":34444,
			"uri":"natura_world_154.bin"
		}
	]
}
