{
	"asset":{
		"generator":"Khronos glTF Blender I/O v3.6.27",
		"version":"2.0"
	},
	"extensionsUsed":[
		"KHR_materials_specular",
		"KHR_materials_ior"
	],
	"scene":0,
	"scenes":[
		{
			"name":"Scene",
			"nodes":[
				0
			]
		}
	],
	"nodes":[
		{
			"mesh":0,
			"name":"natura_world.221"
		}
	],
	"materials":[
		{
			"doubleSided":true,
			"extensions":{
				"KHR_materials_specular":{
					"specularColorFactor":[
						0,
						0,
						0
					]
				},
				"KHR_materials_ior":{
					"ior":1.4500000476837158
				}
			},
			"name":"ground_material",
			"pbrMetallicRoughness":{
				"baseColorFactor":[
					0.1247713565826416,
					0.571124792098999,
					0.07421372830867767,
					1
				],
				"metallicFactor":0
			}
		},
		{
			"doubleSided":true,
			"extensions":{
				"KHR_materials_specular":{
					"specularColorFactor":[
						0,
						0,
						0
					]
				},
				"KHR_materials_ior":{
					"ior":1.4500000476837158
				}
			},
			"name":"beach_material",
			"pbrMetallicRoughness":{
				"baseColorFactor":[
					0.9911014437675476,
					0.7991024255752563,
					0.11953867226839066,
					1
				],
				"metallicFactor":0
			}
		}
	],
	"meshes":[
		{
			"name":"Plane.221",
			"primitives":[
				{
					"attributes":{
						"POSITION":0,
						"NORMAL":1,
						"TEXCOORD_0":2
					},
					"indices":3,
					"material":0
				},
				{
					"attributes":{
						"POSITION":4,
						"NORMAL":5,
						"TEXCOORD_0":6
					},
					"indices":7,
					"material":1
				}
			]
		}
	],
	"accessors":[
		{
			"bufferView":0,
			"componentType":5126,
			"count":681,
			"max":[
				0,
				-0.014215677976608276,
				-0.5
			],
			"min":[
				-0.125,
				-0.027450978755950928,
				-0.6015625
			],
			"type":"VEC3"
		},
		{
			"bufferView":1,
			"componentType":5126,
			"count":681,
			"type":"VEC3"
		},
		{
			"bufferView":2,
			"componentType":5126,
			"count":681,
			"type":"VEC2"
		},
		{
			"bufferView":3,
			"componentType":5123,
			"count":1326,
			"type":"SCALAR"
		},
		{
			"bufferView":4,
			"componentType":5126,
			"count":163,
			"max":[
				0,
				-0.026960767805576324,
				-0.6015625
			],
			"min":[
				-0.125,
				-0.029901951551437378,
				-0.625
			],
			"type":"VEC3"
		},
		{
			"bufferView":5,
			"componentType":5126,
			"count":163,
			"type":"VEC3"
		},
		{
			"bufferView":6,
			"componentType":5126,
			"count":163,
			"type":"VEC2"
		},
		{
			"bufferView":7,
			"componentType":5123,
			"count":408,
			"type":"SCALAR"
		}
	],
	"bufferViews":[
		{
			"buffer":0,
			"byteLength":8172,
			"byteOffset":0,
			"target":34962
		},
		{
			"buffer":0,
			"byteLength":8172,
			"byteOffset":8172,
			"target":34962
		},
		{
			"buffer":0,
			"byteLength":5448,
			"byteOffset":16344,
			"target":34962
		},
		{
			"buffer":0,
			"byteLength":2652,
			"byteOffset":21792,
			"target":34963
		},
		{
			"buffer":0,
			"byteLength":1956,
			"byteOffset":24444,
			"target":34962
		},
		{
			"buffer":0,
			"byteLength":1956,
			"byteOffset":26400,
			"target":34962
		},
		{
			"buffer":0,
			"byteLength":1304,
			"byteOffset":28356,
			"target":34962
		},
		{
			"buffer":0,
			"byteLength":816,
			"byteOffset":29660,
			"target":34963
		}
	],
	"buffers":[
		{
			"byteLength":30476,
			"uri":"natura_world_221.bin"
		}
	]
}
