{
	"asset":{
		"generator":"Khronos glTF Blender I/O v3.6.27",
		"version":"2.0"
	},
	"extensionsUsed":[
		"KHR_materials_specular",
		"KHR_materials_ior"
	],
	"scene":0,
	"scenes":[
		{
			"name":"Scene",
			"nodes":[
				0
			]
		}
	],
	"nodes":[
		{
			"mesh":0,
			"name":"natura_world.133"
		}
	],
	"materials":[
		{
			"doubleSided":true,
			"extensions":{
				"KHR_materials_specular":{
					"specularColorFactor":[
						0,
						0,
						0
					]
				},
				"KHR_materials_ior":{
					"ior":1.4500000476837158
				}
			},
			"name":"ground_material",
			"pbrMetallicRoughness":{
				"baseColorFactor":[
					0.1247713565826416,
					0.571124792098999,
					0.07421372830867767,
					1
				],
				"metallicFactor":0
			}
		},
		{
			"doubleSided":true,
			"extensions":{
				"KHR_materials_specular":{
					"specularColorFactor":[
						0,
						0,
						0
					]
				},
				"KHR_materials_ior":{
					"ior":1.4500000476837158
				}
			},
			"name":"beach_material",
			"pbrMetallicRoughness":{
				"baseColorFactor":[
					0.9911014437675476,
					0.7991024255752563,
					0.11953867226839066,
					1
				],
				"metallicFactor":0
			}
		}
	],
	"meshes":[
		{
			"name":"Plane.133",
			"primitives":[
				{
					"attributes":{
						"POSITION":0,
						"NORMAL":1,
						"TEXCOORD_0":2
					},
					"indices":3,
					"material":0
				},
				{
					"attributes":{
						"POSITION":4,
						"NORMAL":5,
						"TEXCOORD_0":6
					},
					"indices":7,
					"material":1
				}
			]
		}
	],
	"accessors":[
		{
			"bufferView":0,
			"componentType":5126,
			"count":1057,
			"max":[
				0.5,
				-0.018137246370315552,
				0.25
			],
			"min":[
				0.375,
				-0.02794116735458374,
				0.125
			],
			"type":"VEC3"
		},
		{
			"bufferView":1,
			"componentType":5126,
			"count":1057,
			"type":"VEC3"
		},
		{
			"bufferView":2,
			"componentType":5126,
			"count":1057,
			"type":"VEC2"
		},
		{
			"bufferView":3,
			"componentType":5123,
			"count":1572,
			"type":"SCALAR"
		},
		{
			"bufferView":4,
			"componentType":5126,
			"count":76,
			"max":[
				0.5,
				-0.026960767805576324,
				0.25
			],
			"min":[
				0.4921875,
				-0.028431355953216553,
				0.125
			],
			"type":"VEC3"
		},
		{
			"bufferView":5,
			"componentType":5126,
			"count":76,
			"type":"VEC3"
		},
		{
			"bufferView":6,
			"componentType":5126,
			"count":76,
			"type":"VEC2"
		},
		{
			"bufferView":7,
			"componentType":5123,
			"count":162,
			"type":"SCALAR"
		}
	],
	"bufferViews":[
		{
			"buffer":0,
			"byteLength":12684,
			"byteOffset":0,
			"target":34962
		},
		{
			"buffer":0,
			"byteLength":12684,
			"byteOffset":12684,
			"target":34962
		},
		{
			"buffer":0,
			"byteLength":8456,
			"byteOffset":25368,
			"target":34962
		},
		{
			"buffer":0,
			"byteLength":3144,
			"byteOffset":33824,
			"target":34963
		},
		{
			"buffer":0,
			"byteLength":912,
			"byteOffset":36968,
			"target":34962
		},
		{
			"buffer":0,
			"byteLength":912,
			"byteOffset":37880,
			"target":34962
		},
		{
			"buffer":0,
			"byteLength":608,
			"byteOffset":38792,
			"target":34962
		},
		{
			"buffer":0,
			"byteLength":324,
			"byteOffset":39400,
			"target":34963
		}
	],
	"buffers":[
		{
			"byteLength":39724,
			"uri":"natura_world_133.bin"
		}
	]
}
