{
	"asset":{
		"generator":"Khronos glTF Blender I/O v3.6.27",
		"version":"2.0"
	},
	"extensionsUsed":[
		"KHR_materials_specular",
		"KHR_materials_ior"
	],
	"scene":0,
	"scenes":[
		{
			"name":"Scene",
			"nodes":[
				0
			]
		}
	],
	"nodes":[
		{
			"mesh":0,
			"name":"natura_world.108"
		}
	],
	"materials":[
		{
			"doubleSided":true,
			"extensions":{
				"KHR_materials_specular":{
					"specularColorFactor":[
						0,
						0,
						0
					]
				},
				"KHR_materials_ior":{
					"ior":1.4500000476837158
				}
			},
			"name":"ground_material",
			"pbrMetallicRoughness":{
				"baseColorFactor":[
					0.1247713565826416,
					0.571124792098999,
					0.07421372830867767,
					1
				],
				"metallicFactor":0
			}
		},
		{
			"doubleSided":true,
			"extensions":{
				"KHR_materials_specular":{
					"specularColorFactor":[
						0,
						0,
						0
					]
				},
				"KHR_materials_ior":{
					"ior":1.4500000476837158
				}
			},
			"name":"beach_material",
			"pbrMetallicRoughness":{
				"baseColorFactor":[
					0.9911014437675476,
					0.7991024255752563,
					0.11953867226839066,
					1
				],
				"metallicFactor":0
			}
		}
	],
	"meshes":[
		{
			"name":"Plane.108",
			"primitives":[
				{
					"attributes":{
						"POSITION":0,
						"NORMAL":1,
						"TEXCOORD_0":2
					},
					"indices":3,
					"material":0
				},
				{
					"attributes":{
						"POSITION":4,
						"NORMAL":5,
						"TEXCOORD_0":6
					},
					"indices":7,
					"material":1
				}
			]
		}
	],
	"accessors":[
		{
			"bufferView":0,
			"componentType":5126,
			"count":978,
			"max":[
				0.125,
				-0.012990191578865051,
				0.5
			],
			"min":[
				0,
				-0.02892155945301056,
				0.375
			],
			"type":"VEC3"
		},
		{
			"bufferView":1,
			"componentType":5126,
			"count":978,
			"type":"VEC3"
		},
		{
			"bufferView":2,
			"componentType":5126,
			"count":978,
			"type":"VEC2"
		},
		{
			"bufferView":3,
			"componentType":5123,
			"count":1698,
			"type":"SCALAR"
		},
		{
			"bufferView":4,
			"componentType":5126,
			"count":32,
			"max":[
				0.125,
				-0.027696073055267334,
				0.5
			],
			"min":[
				0,
				-0.029901951551437378,
				0.4921875
			],
			"type":"VEC3"
		},
		{
			"bufferView":5,
			"componentType":5126,
			"count":32,
			"type":"VEC3"
		},
		{
			"bufferView":6,
			"componentType":5126,
			"count":32,
			"type":"VEC2"
		},
		{
			"bufferView":7,
			"componentType":5123,
			"count":36,
			"type":"SCALAR"
		}
	],
	"bufferViews":[
		{
			"buffer":0,
			"byteLength":11736,
			"byteOffset":0,
			"target":34962
		},
		{
			"buffer":0,
			"byteLength":11736,
			"byteOffset":11736,
			"target":34962
		},
		{
			"buffer":0,
			"byteLength":7824,
			"byteOffset":23472,
			"target":34962
		},
		{
			"buffer":0,
			"byteLength":3396,
			"byteOffset":31296,
			"target":34963
		},
		{
			"buffer":0,
			"byteLength":384,
			"byteOffset":34692,
			"target":34962
		},
		{
			"buffer":0,
			"byteLength":384,
			"byteOffset":35076,
			"target":34962
		},
		{
			"buffer":0,
			"byteLength":256,
			"byteOffset":35460,
			"target":34962
		},
		{
			"buffer":0,
			"byteLength":72,
			"byteOffset":35716,
			"target":34963
		}
	],
	"buffers":[
		{
			"byteLength":35788,
			"uri":"natura_world_108.bin"
		}
	]
}
