{
	"asset":{
		"generator":"Khronos glTF Blender I/O v3.6.27",
		"version":"2.0"
	},
	"extensionsUsed":[
		"KHR_materials_specular",
		"KHR_materials_ior"
	],
	"scene":0,
	"scenes":[
		{
			"name":"Scene",
			"nodes":[
				0
			]
		}
	],
	"nodes":[
		{
			"mesh":0,
			"name":"natura_world.168"
		}
	],
	"materials":[
		{
			"doubleSided":true,
			"extensions":{
				"KHR_materials_specular":{
					"specularColorFactor":[
						0,
						0,
						0
					]
				},
				"KHR_materials_ior":{
					"ior":1.4500000476837158
				}
			},
			"name":"ground_material",
			"pbrMetallicRoughness":{
				"baseColorFactor":[
					0.1247713565826416,
					0.571124792098999,
					0.07421372830867767,
					1
				],
				"metallicFactor":0
			}
		},
		{
			"doubleSided":true,
			"extensions":{
				"KHR_materials_specular":{
					"specularColorFactor":[
						0,
						0,
						0
					]
				},
				"KHR_materials_ior":{
					"ior":1.4500000476837158
				}
			},
			"name":"beach_material",
			"pbrMetallicRoughness":{
				"baseColorFactor":[
					0.9911014437675476,
					0.7991024255752563,
					0.11953867226839066,
					1
				],
				"metallicFactor":0
			}
		}
	],
	"meshes":[
		{
			"name":"Plane.168",
			"primitives":[
				{
					"attributes":{
						"POSITION":0,
						"NORMAL":1,
						"TEXCOORD_0":2
					},
					"indices":3,
					"material":0
				},
				{
					"attributes":{
						"POSITION":4,
						"NORMAL":5,
						"TEXCOORD_0":6
					},
					"indices":7,
					"material":1
				}
			]
		}
	],
	"accessors":[
		{
			"bufferView":0,
			"componentType":5126,
			"count":321,
			"max":[
				-0.375,
				0,
				0
			],
			"min":[
				-0.5,
				0,
				-0.125
			],
			"type":"VEC3"
		},
		{
			"bufferView":1,
			"componentType":5126,
			"count":321,
			"type":"VEC3"
		},
		{
			"bufferView":2,
			"componentType":5126,
			"count":321,
			"type":"VEC2"
		},
		{
			"bufferView":3,
			"componentType":5123,
			"count":1716,
			"type":"SCALAR"
		},
		{
			"bufferView":4,
			"componentType":5126,
			"count":8,
			"max":[
				-0.4921875,
				0,
				-0.109375
			],
			"min":[
				-0.5,
				0,
				-0.125
			],
			"type":"VEC3"
		},
		{
			"bufferView":5,
			"componentType":5126,
			"count":8,
			"type":"VEC3"
		},
		{
			"bufferView":6,
			"componentType":5126,
			"count":8,
			"type":"VEC2"
		},
		{
			"bufferView":7,
			"componentType":5123,
			"count":18,
			"type":"SCALAR"
		}
	],
	"bufferViews":[
		{
			"buffer":0,
			"byteLength":3852,
			"byteOffset":0,
			"target":34962
		},
		{
			"buffer":0,
			"byteLength":3852,
			"byteOffset":3852,
			"target":34962
		},
		{
			"buffer":0,
			"byteLength":2568,
			"byteOffset":7704,
			"target":34962
		},
		{
			"buffer":0,
			"byteLength":3432,
			"byteOffset":10272,
			"target":34963
		},
		{
			"buffer":0,
			"byteLength":96,
			"byteOffset":13704,
			"target":34962
		},
		{
			"buffer":0,
			"byteLength":96,
			"byteOffset":13800,
			"target":34962
		},
		{
			"buffer":0,
			"byteLength":64,
			"byteOffset":13896,
			"target":34962
		},
		{
			"buffer":0,
			"byteLength":36,
			"byteOffset":13960,
			"target":34963
		}
	],
	"buffers":[
		{
			"byteLength":13996,
			"uri":"natura_world_168.bin"
		}
	]
}
