{
	"asset":{
		"generator":"Khronos glTF Blender I/O v3.6.27",
		"version":"2.0"
	},
	"extensionsUsed":[
		"KHR_materials_specular",
		"KHR_materials_ior"
	],
	"scene":0,
	"scenes":[
		{
			"name":"Scene",
			"nodes":[
				0
			]
		}
	],
	"nodes":[
		{
			"mesh":0,
			"name":"natura_world.190"
		}
	],
	"materials":[
		{
			"doubleSided":true,
			"extensions":{
				"KHR_materials_specular":{
					"specularColorFactor":[
						0,
						0,
						0
					]
				},
				"KHR_materials_ior":{
					"ior":1.4500000476837158
				}
			},
			"name":"ground_material",
			"pbrMetallicRoughness":{
				"baseColorFactor":[
					0.1247713565826416,
					0.571124792098999,
					0.07421372830867767,
					1
				],
				"metallicFactor":0
			}
		}
	],
	"meshes":[
		{
			"name":"Plane.190",
			"primitives":[
				{
					"attributes":{
						"POSITION":0,
						"NORMAL":1,
						"TEXCOORD_0":2
					},
					"indices":3,
					"material":0
				}
			]
		}
	],
	"accessors":[
		{
			"bufferView":0,
			"componentType":5126,
			"count":978,
			"max":[
				0.375,
				-0.012254893779754639,
				-0.25
			],
			"min":[
				0.25,
				-0.027450978755950928,
				-0.375
			],
			"type":"VEC3"
		},
		{
			"bufferView":1,
			"componentType":5126,
			"count":978,
			"type":"VEC3"
		},
		{
			"bufferView":2,
			"componentType":5126,
			"count":978,
			"type":"VEC2"
		},
		{
			"bufferView":3,
			"componentType":5123,
			"count":1734,
			"type":"SCALAR"
		}
	],
	"bufferViews":[
		{
			"buffer":0,
			"byteLength":11736,
			"byteOffset":0,
			"target":34962
		},
		{
			"buffer":0,
			"byteLength":11736,
			"byteOffset":11736,
			"target":34962
		},
		{
			"buffer":0,
			"byteLength":7824,
			"byteOffset":23472,
			"target":34962
		},
		{
			"buffer":0,
			"byteLength":3468,
			"byteOffset":31296,
			"target":34963
		}
	],
	"buffers":[
		{
			"byteLength":34764,
			"uri":"natura_world_190.bin"
		}
	]
}
