{
	"asset":{
		"generator":"Khronos glTF Blender I/O v3.6.27",
		"version":"2.0"
	},
	"extensionsUsed":[
		"KHR_materials_specular",
		"KHR_materials_ior"
	],
	"scene":0,
	"scenes":[
		{
			"name":"Scene",
			"nodes":[
				0
			]
		}
	],
	"nodes":[
		{
			"mesh":0,
			"name":"natura_world.097"
		}
	],
	"materials":[
		{
			"doubleSided":true,
			"extensions":{
				"KHR_materials_specular":{
					"specularColorFactor":[
						0,
						0,
						0
					]
				},
				"KHR_materials_ior":{
					"ior":1.4500000476837158
				}
			},
			"name":"ground_material",
			"pbrMetallicRoughness":{
				"baseColorFactor":[
					0.1247713565826416,
					0.571124792098999,
					0.07421372830867767,
					1
				],
				"metallicFactor":0
			}
		},
		{
			"doubleSided":true,
			"extensions":{
				"KHR_materials_specular":{
					"specularColorFactor":[
						0,
						0,
						0
					]
				},
				"KHR_materials_ior":{
					"ior":1.4500000476837158
				}
			},
			"name":"beach_material",
			"pbrMetallicRoughness":{
				"baseColorFactor":[
					0.9911014437675476,
					0.7991024255752563,
					0.11953867226839066,
					1
				],
				"metallicFactor":0
			}
		}
	],
	"meshes":[
		{
			"name":"Plane.097",
			"primitives":[
				{
					"attributes":{
						"POSITION":0,
						"NORMAL":1,
						"TEXCOORD_0":2
					},
					"indices":3,
					"material":0
				},
				{
					"attributes":{
						"POSITION":4,
						"NORMAL":5,
						"TEXCOORD_0":6
					},
					"indices":7,
					"material":1
				}
			]
		}
	],
	"accessors":[
		{
			"bufferView":0,
			"componentType":5126,
			"count":808,
			"max":[
				-0.25,
				-0.023284293711185455,
				0.625
			],
			"min":[
				-0.375,
				-0.02892155945301056,
				0.5
			],
			"type":"VEC3"
		},
		{
			"bufferView":1,
			"componentType":5126,
			"count":808,
			"type":"VEC3"
		},
		{
			"bufferView":2,
			"componentType":5126,
			"count":808,
			"type":"VEC2"
		},
		{
			"bufferView":3,
			"componentType":5123,
			"count":1518,
			"type":"SCALAR"
		},
		{
			"bufferView":4,
			"componentType":5126,
			"count":116,
			"max":[
				-0.25,
				-0.02892155945301056,
				0.625
			],
			"min":[
				-0.3046875,
				-0.0308823361992836,
				0.578125
			],
			"type":"VEC3"
		},
		{
			"bufferView":5,
			"componentType":5126,
			"count":116,
			"type":"VEC3"
		},
		{
			"bufferView":6,
			"componentType":5126,
			"count":116,
			"type":"VEC2"
		},
		{
			"bufferView":7,
			"componentType":5123,
			"count":216,
			"type":"SCALAR"
		}
	],
	"bufferViews":[
		{
			"buffer":0,
			"byteLength":9696,
			"byteOffset":0,
			"target":34962
		},
		{
			"buffer":0,
			"byteLength":9696,
			"byteOffset":9696,
			"target":34962
		},
		{
			"buffer":0,
			"byteLength":6464,
			"byteOffset":19392,
			"target":34962
		},
		{
			"buffer":0,
			"byteLength":3036,
			"byteOffset":25856,
			"target":34963
		},
		{
			"buffer":0,
			"byteLength":1392,
			"byteOffset":28892,
			"target":34962
		},
		{
			"buffer":0,
			"byteLength":1392,
			"byteOffset":30284,
			"target":34962
		},
		{
			"buffer":0,
			"byteLength":928,
			"byteOffset":31676,
			"target":34962
		},
		{
			"buffer":0,
			"byteLength":432,
			"byteOffset":32604,
			"target":34963
		}
	],
	"buffers":[
		{
			"byteLength":33036,
			"uri":"natura_world_097.bin"
		}
	]
}
